HIERARCHY
ROOT joint_Root
{
  OFFSET 0 0 0
  CHANNELS 6 Xposition Yposition Zposition Zrotation Xrotation Yrotation
  JOINT Hips
  {
    OFFSET 0.847027 93.984 -452.225
    CHANNELS 6 Xposition Yposition Zposition Zrotation Xrotation Yrotation
    JOINT Spine
    {
      OFFSET 15.7357 0 0
      CHANNELS 6 Xposition Yposition Zposition Zrotation Xrotation Yrotation
      JOINT Chest
      {
        OFFSET 8.98455 -0.406207 0
        CHANNELS 6 Xposition Yposition Zposition Zrotation Xrotation Yrotation
        JOINT Neck
        {
          OFFSET 16.3773 0 0
          CHANNELS 6 Xposition Yposition Zposition Zrotation Xrotation Yrotation
          JOINT Head
          {
            OFFSET 6.45672 0 0
            CHANNELS 6 Xposition Yposition Zposition Zrotation Xrotation Yrotation
            End Site
            {
              OFFSET 0 0 0
            }
          }
        }
        JOINT Shoulder_L
        {
          OFFSET 12.9942 -0.242716 4.98039
          CHANNELS 6 Xposition Yposition Zposition Zrotation Xrotation Yrotation
          JOINT UpperArm_L
          {
            OFFSET 5.34809 0 0
            CHANNELS 6 Xposition Yposition Zposition Zrotation Xrotation Yrotation
            JOINT LowerArm_L
            {
              OFFSET 24.3286 1.87007e-05 0
              CHANNELS 6 Xposition Yposition Zposition Zrotation Xrotation Yrotation
              JOINT Hand_L
              {
                OFFSET 22.2916 0 0
                CHANNELS 6 Xposition Yposition Zposition Zrotation Xrotation Yrotation
                End Site
                {
                  OFFSET 0 0 0
                }
              }
            }
          }
        }
        JOINT Shoulder_R
        {
          OFFSET 12.9945 -0.242716 -4.98039
          CHANNELS 6 Xposition Yposition Zposition Zrotation Xrotation Yrotation
          JOINT UpperArm_R
          {
            OFFSET -5.34813 0 0
            CHANNELS 6 Xposition Yposition Zposition Zrotation Xrotation Yrotation
            JOINT LowerArm_R
            {
              OFFSET -24.3289 0.000322201 0
              CHANNELS 6 Xposition Yposition Zposition Zrotation Xrotation Yrotation
              JOINT Hand_R
              {
                OFFSET -22.2915 -0.000108084 0
                CHANNELS 6 Xposition Yposition Zposition Zrotation Xrotation Yrotation
                End Site
                {
                  OFFSET 0 0 0
                }
              }
            }
          }
        }
      }
    }
    JOINT UpperLeg_L
    {
      OFFSET -2.19248 -6.46944 0
      CHANNELS 6 Xposition Yposition Zposition Zrotation Xrotation Yrotation
      JOINT LowerLeg_L
      {
        OFFSET 39.0811 0 -1.23785e-05
        CHANNELS 6 Xposition Yposition Zposition Zrotation Xrotation Yrotation
        JOINT Foot_L
        {
          OFFSET 40.9854 0 -1.26872e-05
          CHANNELS 6 Xposition Yposition Zposition Zrotation Xrotation Yrotation
          JOINT Toes_L
          {
            OFFSET 11.7543 0 0
            CHANNELS 6 Xposition Yposition Zposition Zrotation Xrotation Yrotation
            End Site
            {
              OFFSET 0 0 0
            }
          }
        }
      }
    }
    JOINT UpperLeg_R
    {
      OFFSET -2.19251 6.46944 0
      CHANNELS 6 Xposition Yposition Zposition Zrotation Xrotation Yrotation
      JOINT LowerLeg_R
      {
        OFFSET -39.0811 -0.00228153 -0.0401928
        CHANNELS 6 Xposition Yposition Zposition Zrotation Xrotation Yrotation
        JOINT Foot_R
        {
          OFFSET -40.9854 0 0
          CHANNELS 6 Xposition Yposition Zposition Zrotation Xrotation Yrotation
          JOINT Toes_R
          {
            OFFSET -11.7543 0 0
            CHANNELS 6 Xposition Yposition Zposition Zrotation Xrotation Yrotation
            End Site
            {
              OFFSET 0 0 0
            }
          }
        }
      }
    }
  }
}
MOTION
Frames:	4
Frame Time:	0.0333333
0 0 0 0 0 -0 -5.89213 91.6444 -48.1777 89.349 2.45989 9.4213 15.7357 5.1072e-06 -5.51765e-07 93.2388 75.9397 -92.5659 8.98455 -0.406207 -4.3199e-07 20.3059 1.62539 1.05907 16.3773 -1.3905e-06 -6.99897e-07 12.3626 -4.974 0.0694843 6.45672 -1.25837e-06 -1.02172e-07 4.34665 -6.52408 0.984592 12.9942 -0.242716 4.98039 -91.5318 8.84904 -95.1384 5.34809 -7.22636e-06 -6.2814e-07 -56.8208 18.6107 -21.7307 24.3286 1.87007e-05 4.90208e-06 -0.572311 -1.61542 -19.4999 22.2916 -9.88446e-07 4.63217e-06 16.7464 5.56114 -9.24281 12.9945 -0.242716 -4.98039 88.8456 11.3556 -99.1564 -5.34813 -1.25947e-06 -3.79883e-06 -55.3826 8.7763 -15.7618 -24.3289 0.000322201 -8.65921e-06 3.56231 7.87516 -24.4408 -22.2915 -0.000108084 -4.47941e-06 12.487 5.34454 -1.21405 -2.19248 -6.46944 -1.22534e-07 -171.705 -6.47157 -3.14308 39.0811 -6.73843e-06 -1.23785e-05 0.031409 -0.0545005 25.1975 40.9854 -6.48686e-06 -1.26872e-05 -5.21048 1.44231 -62.399 11.7543 -2.30145e-07 3.05095e-06 0.0119655 -0.0185281 -16.9089 -2.19251 6.46944 -1.45247e-06 173.154 15.3076 177.335 -39.0811 -0.00228153 -0.0401928 0.0623039 -0.100321 25.5275 -40.9854 7.72618e-06 5.99936e-06 -2.84223 5.26119 -62.2747 -11.7543 -5.6619e-06 -5.58687e-06 -0.120871 0.0863401 -16.5702 
0 0 0 0 0 -0 -5.68292 91.7062 -48.5382 89.0671 2.70627 9.1049 15.7357 5.1072e-06 -5.51765e-07 93.217 75.6202 -92.6453 8.98455 -0.406207 -4.3199e-07 20.9462 1.63993 0.844481 16.3773 -1.3905e-06 -6.99897e-07 12.613 -4.61698 -0.201183 6.45672 -1.25837e-06 -1.02172e-07 4.45516 -6.02155 1.16479 12.9942 -0.242716 4.98039 -91.5806 8.95199 -94.9446 5.34809 -7.22636e-06 -6.2814e-07 -55.1209 18.6962 -23.9634 24.3286 1.87007e-05 4.90208e-06 -1.02441 -2.52744 -22.0692 22.2916 -9.88446e-07 4.63217e-06 17.3982 5.56752 -9.55952 12.9945 -0.242716 -4.98039 88.8151 11.4533 -99.0531 -5.34813 -1.25947e-06 -3.79883e-06 -56.9104 9.1452 -15.4015 -24.3289 0.000322201 -8.65921e-06 3.48653 7.17941 -25.9994 -22.2915 -0.000108084 -4.47941e-06 12.4827 5.34512 -1.23161 -2.19248 -6.46944 -1.22534e-07 -171.703 -6.11242 -3.76005 39.0811 -6.73843e-06 -1.23785e-05 0.027743 -0.04788 25.1239 40.9854 -6.48686e-06 -1.26872e-05 -5.25386 1.27006 -62.1336 11.7543 -2.30145e-07 3.05095e-06 0.00946554 -0.0146703 -16.8399 -2.19251 6.46944 -1.45247e-06 173.415 15.5009 177.13 -39.0811 -0.00228153 -0.0401928 0.0603818 -0.0994739 24.8313 -40.9854 7.72618e-06 5.99936e-06 -2.99627 5.13994 -61.6658 -11.7543 -5.6619e-06 -5.58687e-06 -0.114578 0.081481 -16.5706 
0 0 0 0 0 -0 -5.51113 91.7879 -48.988 88.8692 2.99522 7.91269 15.7357 5.1072e-06 -5.51765e-07 93.2922 75.6622 -92.8204 8.98455 -0.406207 -4.3199e-07 20.8616 1.66055 0.641327 16.3773 -1.3905e-06 -6.99897e-07 12.0037 -4.40079 -0.376075 6.45672 -1.25837e-06 -1.02172e-07 4.02512 -5.74019 1.4099 12.9942 -0.242716 4.98039 -91.5776 8.8663 -94.8693 5.34809 -7.22636e-06 -6.2814e-07 -54.2763 18.4545 -25.4477 24.3286 1.87007e-05 4.90208e-06 -1.5319 -3.34454 -24.6237 22.2916 -9.88446e-07 4.63217e-06 18.086 5.57423 -9.90653 12.9945 -0.242716 -4.98039 88.8288 11.6649 -99.2264 -5.34813 -1.25947e-06 -3.79883e-06 -58.2042 9.74769 -14.7346 -24.3289 0.000322201 -8.65921e-06 2.70572 5.3257 -26.9936 -22.2915 -0.000108084 -4.47941e-06 12.447 5.34735 -1.29784 -2.19248 -6.46944 -1.22533e-07 -171.876 -5.9079 -5.26156 39.0811 -6.73843e-06 -1.23785e-05 0.0308034 -0.0570976 24.8915 40.9854 -6.48686e-06 -1.26872e-05 -5.13926 1.11443 -61.6752 11.7543 -2.30145e-07 3.05095e-06 0.0113986 -0.0176599 -16.8931 -2.19251 6.46944 -1.45247e-06 173.861 15.9465 175.96 -39.0811 -0.00228153 -0.0401928 0.0607556 -0.10541 24.0839 -40.9854 7.72618e-06 5.99936e-06 -3.09527 5.0813 -60.9411 -11.7543 -5.6619e-06 -5.58687e-06 -0.0937052 0.0662377 -16.5713 
0 0 0 0 0 -0 -5.34591 91.9024 -49.3597 88.739 3.20975 6.69742 15.7357 5.1072e-06 -5.51765e-07 93.3744 75.7747 -92.9705 8.98455 -0.406207 -4.3199e-07 20.6356 1.68 0.504799 16.3773 -1.3905e-06 -6.99897e-07 11.1967 -4.27626 -0.617422 6.45672 -1.25837e-06 -1.02172e-07 2.59096 -5.64629 1.64261 12.9942 -0.242716 4.98039 -91.5303 8.57269 -94.8397 5.34809 -7.22636e-06 -6.2814e-07 -54.3229 17.9525 -26.1046 24.3286 1.87007e-05 4.90208e-06 -2.03343 -3.95111 -27.2585 22.2916 -9.88446e-07 4.63217e-06 18.7295 5.5796 -10.1884 12.9945 -0.242716 -4.98039 88.8734 11.6603 -99.4427 -5.34813 -1.25947e-06 -3.79883e-06 -59.2895 10.4417 -14.7156 -24.3289 0.000322201 -8.65921e-06 1.38279 2.75804 -26.6476 -22.2915 -0.000108084 -4.47941e-06 11.7712 5.33828 -1.02785 -2.19248 -6.46944 -1.22533e-07 -172.067 -5.93031 -6.55616 39.0811 -6.73843e-06 -1.23785e-05 0.0339807 -0.0675765 24.3824 40.9854 -6.48686e-06 -1.26872e-05 -4.96852 1.10739 -61.1821 11.7543 -2.30145e-07 3.05095e-06 0.0092785 -0.0143472 -16.8342 -2.19251 6.46944 -1.45247e-06 174.223 16.6196 174.942 -39.0811 -0.00228153 -0.0401928 0.0618812 -0.115572 23.1108 -40.9854 7.72618e-06 5.99936e-06 -3.14565 5.35279 -60.1449 -11.7543 -5.6619e-06 -5.58687e-06 -0.0861666 0.0606871 -16.5715 
